{
    "asset" : {
        "generator" : "Khronos glTF Blender I/O v1.3.48",
        "version" : "2.0"
    },
    "scene" : 0,
    "scenes" : [
        {
            "name" : "Scene",
            "nodes" : [
                0
            ]
        }
    ],
    "nodes" : [
        {
            "mesh" : 0,
            "name" : "Cylinder",
            "translation" : [
                45.715023040771484,
                8.154723167419434,
                4.03809928894043
            ]
        }
    ],
    "materials" : [
        {
            "doubleSided" : true,
            "name" : "Material.012",
            "pbrMetallicRoughness" : {}
        }
    ],
    "meshes" : [
        {
            "name" : "Cylinder",
            "primitives" : [
                {
                    "attributes" : {
                        "POSITION" : 0,
                        "NORMAL" : 1
                    },
                    "indices" : 2,
                    "material" : 0
                }
            ]
        }
    ],
    "accessors" : [
        {
            "bufferView" : 0,
            "componentType" : 5126,
            "count" : 639,
            "max" : [
                68.7967300415039,
                23.447555541992188,
                75.01471710205078
            ],
            "min" : [
                -48.557212829589844,
                -105.70266723632812,
                -65.93451690673828
            ],
            "type" : "VEC3"
        },
        {
            "bufferView" : 1,
            "componentType" : 5126,
            "count" : 639,
            "type" : "VEC3"
        },
        {
            "bufferView" : 2,
            "componentType" : 5123,
            "count" : 951,
            "type" : "SCALAR"
        }
    ],
    "bufferViews" : [
        {
            "buffer" : 0,
            "byteLength" : 7668,
            "byteOffset" : 0
        },
        {
            "buffer" : 0,
            "byteLength" : 7668,
            "byteOffset" : 7668
        },
        {
            "buffer" : 0,
            "byteLength" : 1902,
            "byteOffset" : 15336
        }
    ],
    "buffers" : [
        {
            "byteLength" : 17240,
            "uri" : "data:application/octet-stream;base64,"
        }
    ]
}
